<?xml version="1.0" standalone="no"?>
<!DOCTYPE svg PUBLIC "-//W3C//DTD SVG 20010904//EN"
 "http://www.w3.org/TR/2001/REC-SVG-20010904/DTD/svg10.dtd">
<svg version="1.0" xmlns="http://www.w3.org/2000/svg"
 width="340.000000pt" height="340.000000pt" viewBox="0 0 340.000000 340.000000"
 preserveAspectRatio="xMidYMid meet">

<g transform="translate(0.000000,340.000000) scale(0.100000,-0.100000)"
fill="#000000" stroke="none">
<path d="M1560 3319 c-79 -5 -170 -18 -220 -32 -72 -19 -85 -25 -88 -44 -3
-18 -10 -23 -33 -23 -16 0 -29 5 -29 12 0 6 -3 9 -6 6 -14 -15 18 -48 46 -48
24 0 30 -4 30 -22 0 -20 -1 -21 -13 -4 -7 10 -22 17 -32 15 -23 -5 -32 -29
-11 -29 9 0 16 -4 16 -10 0 -5 16 -10 35 -10 31 0 35 -3 35 -25 0 -26 -24 -35
-33 -12 -3 6 -6 2 -6 -10 -1 -19 4 -23 29 -23 19 0 30 -5 30 -14 0 -8 8 -17
18 -19 9 -3 -2 -3 -25 0 -38 5 -43 3 -43 -14 0 -15 9 -22 35 -26 19 -3 42 -12
50 -21 13 -13 13 -15 -7 -22 -13 -4 -24 -2 -26 5 -6 18 -22 13 -22 -8 0 -28
38 -31 122 -8 105 29 394 36 510 12 148 -29 325 -99 441 -172 21 -13 44 -22
50 -20 10 4 280 198 296 213 16 15 -141 120 -294 196 -261 131 -527 179 -855
157z"/>
<path d="M2961 2666 c-7 -8 -70 -56 -142 -108 -71 -51 -148 -107 -172 -125
-23 -18 -63 -47 -88 -65 -25 -18 -83 -60 -128 -93 -45 -33 -96 -70 -114 -82
-18 -13 -37 -27 -43 -32 -6 -4 -62 -46 -125 -92 -63 -46 -135 -99 -161 -119
-26 -19 -66 -49 -90 -66 -24 -17 -77 -56 -119 -87 -42 -32 -80 -57 -83 -57 -4
0 -37 19 -74 43 -37 24 -98 63 -137 87 -70 43 -162 101 -272 172 -32 20 -75
46 -95 58 l-38 22 0 -224 0 -225 78 -48 c42 -26 106 -67 142 -90 61 -39 160
-102 205 -128 11 -7 44 -28 75 -48 80 -52 119 -71 133 -63 13 8 39 26 267 195
85 63 180 132 210 154 30 22 73 54 94 72 22 18 46 33 53 33 7 0 13 4 13 8 0 4
43 39 96 77 53 39 113 82 133 97 20 15 54 40 76 55 21 16 115 84 207 153 92
69 201 150 243 179 41 30 75 56 75 57 0 13 -80 155 -122 219 -55 82 -76 97
-97 71z"/>
<path d="M3265 1949 c-39 -29 -104 -77 -219 -164 -32 -25 -62 -45 -67 -45 -5
0 -9 -30 -9 -67 0 -215 -103 -523 -233 -701 -54 -74 -138 -166 -168 -185 -21
-14 -26 -23 -20 -35 5 -9 14 -36 20 -59 7 -24 16 -43 21 -43 6 0 10 -20 10
-45 0 -26 5 -45 11 -45 6 0 10 -15 8 -32 -1 -18 -1 -57 0 -86 1 -50 2 -52 26
-48 40 7 45 15 45 67 0 37 4 49 15 49 8 0 15 9 15 20 0 11 4 20 9 20 6 0 5
-14 0 -36 -6 -19 -9 -44 -7 -54 3 -17 9 -14 48 20 25 22 48 40 51 40 4 0 44
43 90 95 161 184 265 364 337 585 48 148 57 193 73 365 9 100 8 161 -1 272 -7
79 -13 143 -14 142 0 0 -19 -14 -41 -30z m-579 -1407 c-11 -10 -14 3 -8 33 l7
30 3 -28 c2 -16 1 -31 -2 -35z"/>
</g>
</svg>
