<?xml version="1.0" standalone="no"?>
<!DOCTYPE svg PUBLIC "-//W3C//DTD SVG 20010904//EN"
 "http://www.w3.org/TR/2001/REC-SVG-20010904/DTD/svg10.dtd">
<svg version="1.0" xmlns="http://www.w3.org/2000/svg"
 width="900.000000pt" height="900.000000pt" viewBox="0 0 900.000000 900.000000"
 preserveAspectRatio="xMidYMid meet">

<g transform="translate(0.000000,900.000000) scale(0.100000,-0.100000)"
fill="#000000" stroke="none">
<path d="M3925 8624 c-33 -2 -107 -8 -165 -14 -58 -6 -137 -13 -175 -15 -73
-5 -223 -32 -360 -66 -44 -11 -96 -22 -115 -24 -19 -3 -91 -23 -160 -45 -69
-22 -130 -40 -136 -40 -6 0 -55 -18 -110 -41 -54 -22 -117 -46 -139 -53 -112
-38 -608 -292 -635 -325 -3 -4 -63 -45 -135 -92 -272 -180 -644 -518 -844
-769 -50 -63 -102 -127 -116 -141 -13 -15 -58 -78 -100 -140 -42 -63 -83 -122
-91 -132 -14 -18 -104 -172 -154 -265 -87 -160 -164 -324 -192 -407 -11 -33
-23 -64 -27 -70 -16 -21 -126 -357 -136 -414 -3 -17 -18 -83 -35 -148 -35
-141 -53 -247 -77 -448 -25 -209 -25 -764 0 -940 9 -66 19 -147 22 -180 3 -33
19 -118 36 -190 16 -71 34 -152 40 -180 15 -69 46 -177 76 -260 14 -38 26 -78
29 -89 4 -24 35 -108 44 -121 9 -14 41 -96 45 -117 5 -26 191 -394 249 -493
76 -130 239 -368 310 -454 225 -272 392 -444 609 -627 133 -112 390 -293 547
-385 167 -98 471 -248 534 -263 15 -4 47 -16 70 -26 56 -26 147 -61 169 -66
10 -2 76 -21 145 -44 70 -22 141 -42 157 -44 17 -2 89 -18 160 -34 137 -31
240 -50 315 -57 25 -2 104 -9 175 -16 164 -17 597 -17 735 -1 58 7 137 14 175
17 73 5 222 32 360 65 44 11 98 22 119 26 21 3 93 24 160 46 67 22 131 42 144
44 22 4 156 55 197 74 11 5 47 19 80 31 33 12 84 35 113 51 28 17 52 27 52 23
0 -4 35 12 78 36 42 24 95 51 117 62 22 11 63 34 92 53 28 19 54 34 57 34 9 0
190 113 205 127 8 8 32 26 54 40 96 61 231 166 352 276 273 247 479 474 640
707 33 47 65 90 71 97 18 19 144 230 144 242 0 6 4 11 8 11 9 0 148 271 202
395 18 39 38 84 45 100 49 110 181 528 190 603 3 21 16 88 30 148 34 151 53
285 62 439 8 130 11 495 5 655 -4 97 -31 318 -42 338 -4 9 -117 -99 -358 -345
l-352 -358 0 -65 c0 -79 -25 -306 -46 -415 -9 -44 -17 -97 -20 -118 -5 -48
-28 -140 -61 -242 -14 -44 -27 -91 -30 -105 -14 -78 -177 -459 -255 -595 -77
-134 -123 -211 -128 -215 -4 -3 -29 -39 -56 -80 -63 -96 -129 -185 -166 -224
-16 -17 -36 -40 -46 -51 -108 -124 -203 -221 -277 -287 -49 -44 -108 -97 -130
-117 -68 -63 -313 -241 -331 -241 -4 0 -17 -9 -28 -19 -40 -37 -439 -247 -485
-256 -10 -2 -36 -12 -57 -23 -82 -40 -414 -146 -494 -156 -19 -3 -89 -16 -155
-30 -189 -39 -374 -56 -598 -56 -253 -1 -400 14 -632 62 -55 11 -113 22 -129
24 -38 5 -87 19 -198 55 -51 17 -115 36 -143 44 -27 7 -81 27 -118 44 -38 17
-73 31 -78 31 -25 0 -381 183 -474 244 -179 117 -213 140 -245 166 -289 237
-451 393 -585 564 -39 50 -81 101 -94 115 -14 14 -58 77 -99 141 -41 63 -87
135 -103 159 -63 97 -272 540 -282 599 -2 9 -22 74 -45 143 -22 69 -44 141
-47 160 -3 19 -17 84 -30 146 -55 245 -59 288 -60 640 -2 413 1 434 94 860 11
50 34 131 51 180 18 48 34 98 36 111 12 64 265 602 292 622 4 3 36 49 70 104
168 265 443 567 711 782 160 128 367 268 481 324 36 18 71 37 78 43 25 20 329
152 432 187 153 52 322 100 370 106 30 3 58 8 61 10 8 5 140 30 224 43 153 24
269 32 460 32 240 0 414 -17 625 -62 52 -11 111 -22 130 -24 36 -5 160 -41
239 -69 25 -9 56 -18 70 -21 27 -5 125 -42 198 -76 24 -10 47 -19 51 -19 11 0
266 -124 312 -152 121 -72 204 -118 209 -116 4 2 125 124 269 273 l262 269
-31 29 c-18 16 -77 56 -133 89 -56 33 -113 69 -128 79 -64 45 -456 236 -552
269 -28 10 -79 29 -112 43 -34 14 -72 28 -86 31 -13 2 -74 20 -134 40 -60 20
-152 45 -204 57 -250 55 -381 80 -447 84 -40 3 -114 10 -165 15 -100 11 -475
20 -573 14z"/>
<path d="M7209 7548 c-343 -353 -722 -741 -842 -862 -120 -122 -222 -225 -227
-231 -59 -60 -1789 -1836 -1805 -1854 l-23 -23 -168 158 c-93 88 -194 184
-225 214 -160 155 -255 246 -609 575 -212 197 -398 370 -413 384 l-28 25 -579
-579 c-319 -319 -579 -585 -578 -591 2 -6 332 -327 733 -714 402 -386 786
-759 855 -829 69 -69 247 -243 395 -386 148 -143 346 -333 438 -423 93 -90
174 -162 181 -160 6 2 455 455 996 1008 542 553 1072 1093 1180 1201 576 579
2504 2547 2509 2561 3 10 -1147 1168 -1160 1168 -3 0 -286 -289 -630 -642z"/>
</g>
</svg>
